<?xml version="1.0" encoding="UTF-8" standalone="no"?>
<!-- Created with Inkscape (http://www.inkscape.org/) -->

<svg
   xmlns:dc="http://purl.org/dc/elements/1.1/"
   xmlns:cc="http://creativecommons.org/ns#"
   xmlns:rdf="http://www.w3.org/1999/02/22-rdf-syntax-ns#"
   xmlns:svg="http://www.w3.org/2000/svg"
   xmlns="http://www.w3.org/2000/svg"
   xmlns:sodipodi="http://sodipodi.sourceforge.net/DTD/sodipodi-0.dtd"
   xmlns:inkscape="http://www.inkscape.org/namespaces/inkscape"
   version="1.1"
   id="svg2"
   xml:space="preserve"
   width="1005.6862"
   height="710.41876"
   viewBox="0 0 1005.6862 710.41876"
   sodipodi:docname="interpretation.pdf"
   inkscape:version="0.92.2 (5c3e80d, 2017-08-06)"><metadata
     id="metadata8"><rdf:RDF><cc:Work
         rdf:about=""><dc:format>image/svg+xml</dc:format><dc:type
           rdf:resource="http://purl.org/dc/dcmitype/StillImage" /><dc:title></dc:title></cc:Work></rdf:RDF></metadata><defs
     id="defs6" /><sodipodi:namedview
     pagecolor="#ffffff"
     bordercolor="#666666"
     borderopacity="1"
     objecttolerance="10"
     gridtolerance="10"
     guidetolerance="10"
     inkscape:pageopacity="0"
     inkscape:pageshadow="2"
     inkscape:window-width="3066"
     inkscape:window-height="1689"
     id="namedview4"
     showgrid="false"
     inkscape:zoom="1.4142136"
     inkscape:cx="423.31644"
     inkscape:cy="356.92002"
     inkscape:window-x="134"
     inkscape:window-y="55"
     inkscape:window-maximized="1"
     inkscape:current-layer="g10" /><g
     id="g10"
     inkscape:groupmode="layer"
     inkscape:label="interpretation"
     transform="matrix(1.3333333,0,0,-1.3333333,0,710.41878)"><g
       id="g12"><g
         id="g14"
         transform="matrix(1,0,0,-1,0,532.81409)"><path
           d="M 77.523,18.246 V 198.559 H 309.152"
           style="fill:none;stroke:#000000;stroke-width:1.60000002;stroke-linecap:butt;stroke-linejoin:miter;stroke-miterlimit:4;stroke-dasharray:none;stroke-opacity:1"
           id="path16"
           inkscape:connector-curvature="0" /></g><path
         d="m 70.426,497.463 7.07,19.23 7.07,-19.23 c -4.175,3.074 -9.886,3.054 -14.14,0 z"
         style="fill:#000000;fill-opacity:1;fill-rule:evenodd;stroke:none"
         id="path18"
         inkscape:connector-curvature="0" /><path
         d="m 292.047,341.353 19.23,-7.07 -19.23,-7.07 c 3.074,4.175 3.055,9.886 0,14.14 z"
         style="fill:#000000;fill-opacity:1;fill-rule:evenodd;stroke:none"
         id="path20"
         inkscape:connector-curvature="0" /><g
         id="g22"
         transform="matrix(1,0,0,-1,0,532.81409)"><path
           d="m 78.586,52.633 c 99.691,175.273 136.598,176.191 225.551,-3.375"
           style="fill:none;stroke:#000000;stroke-width:0.80000001;stroke-linecap:butt;stroke-linejoin:miter;stroke-miterlimit:4;stroke-dasharray:none;stroke-opacity:1"
           id="path24"
           inkscape:connector-curvature="0" /></g><text
         transform="matrix(1,0,0,-1,261.60017,313.37737)"
         style="font-style:oblique;font-variant:normal;font-size:12px;font-family:'DejaVu Sans';-inkscape-font-specification:DejaVuSans-Oblique;writing-mode:lr-tb;fill:#000000;fill-opacity:1;fill-rule:nonzero;stroke:none"
         id="text28"><tspan
           x="0 7.2360001 14.58 19.511999 26.856001 38.580002 45.959999 50.664001 58.043999 62.976002 66.779999"
           y="0"
           sodipodi:role="line"
           id="tspan26">Parameter p</tspan></text>
<text
         transform="matrix(1,0,0,-1,336.06111,310.97737)"
         style="font-style:oblique;font-variant:normal;font-size:7.80010986px;font-family:'DejaVu Sans';-inkscape-font-specification:DejaVuSans-Oblique;writing-mode:lr-tb;fill:#000000;fill-opacity:1;fill-rule:nonzero;stroke:none"
         id="text32"><tspan
           x="0"
           y="0"
           id="tspan30">i</tspan></text>
<text
         transform="matrix(1,0,0,-1,7.216477,483.49543)"
         style="font-style:oblique;font-variant:normal;font-size:12px;font-family:'DejaVu Sans';-inkscape-font-specification:DejaVuSans-Oblique;writing-mode:lr-tb;fill:#000000;fill-opacity:1;fill-rule:nonzero;stroke:none"
         id="text38"><tspan
           x="0 8.3760004 15.72 19.044001 22.368 29.976 34.908001 42.251999 46.956001 50.279999 57.612"
           y="0"
           sodipodi:role="line"
           id="tspan34">Calibration</tspan><tspan
           x="17.882809 25.262808 30.194807 35.126808 42.458809"
           y="15"
           sodipodi:role="line"
           id="tspan36">error</tspan></text>
<g
         id="g40"
         transform="matrix(1,0,0,-1,0,532.81409)"><path
           d="M 77.512,166.297 H 307.941"
           style="fill:none;stroke:#000000;stroke-width:0.80000001;stroke-linecap:butt;stroke-linejoin:miter;stroke-miterlimit:4;stroke-dasharray:1.6, 3.2;stroke-dashoffset:0;stroke-opacity:1"
           id="path42"
           inkscape:connector-curvature="0" /></g><g
         id="g44"
         transform="matrix(1,0,0,-1,0,532.81409)"><path
           d="m 157.469,167.898 v 41.207"
           style="fill:none;stroke:#000000;stroke-width:0.80000001;stroke-linecap:butt;stroke-linejoin:miter;stroke-miterlimit:4;stroke-dasharray:1.6, 3.2;stroke-dashoffset:0;stroke-opacity:1"
           id="path46"
           inkscape:connector-curvature="0" /></g><g
         id="g48"
         transform="matrix(1,0,0,-1,0,532.81409)"><path
           d="m 231.07,167.898 v 41.207"
           style="fill:none;stroke:#000000;stroke-width:0.80000001;stroke-linecap:butt;stroke-linejoin:miter;stroke-miterlimit:4;stroke-dasharray:1.6, 3.2;stroke-dashoffset:0;stroke-opacity:1"
           id="path50"
           inkscape:connector-curvature="0" /></g><g
         id="g52"
         transform="matrix(1,0,0,-1,0,532.81409)"><path
           d="m 157.445,207.172 h 73.621"
           style="fill:none;stroke:#000000;stroke-width:0.80000001;stroke-linecap:butt;stroke-linejoin:miter;stroke-miterlimit:4;stroke-dasharray:none;stroke-opacity:1"
           id="path54"
           inkscape:connector-curvature="0" /></g><text
         transform="matrix(1,0,0,-1,161.62585,312.29543)"
         style="font-style:oblique;font-variant:normal;font-size:12px;font-family:'DejaVu Sans';-inkscape-font-specification:DejaVuSans-Oblique;writing-mode:lr-tb;fill:#000000;fill-opacity:1;fill-rule:nonzero;stroke:none"
         id="text64"><tspan
           x="0 8.2080002 14.796 21.384001 28.764 36.372002 41.076 48.419998 56.051998 62.639999"
           y="0"
           sodipodi:role="line"
           id="tspan56">Acceptance</tspan><tspan
           x="17.58984 22.521839 29.865841 37.461842 45.069839"
           y="15"
           sodipodi:role="line"
           id="tspan58">range</tspan><tspan
           x="-160.98718 -152.77919 -146.19119 -139.6032 -132.22319 -124.61519 -119.91119 -112.56718 -104.93519 -98.347191"
           y="-58.201225"
           sodipodi:role="line"
           id="tspan60">Acceptance</tspan><tspan
           x="-154.34265 -149.63866 -142.04266 -137.11066 -129.73065 -123.45466 -115.85866 -108.52666 -105.20266"
           y="-43.201225"
           sodipodi:role="line"
           id="tspan62">threshold</tspan></text>
<g
         id="g66"
         transform="matrix(1,0,0,-1,0,532.81409)"><path
           d="m 233.684,205.422 -2.239,1.816 2.203,1.762"
           style="fill:none;stroke:#000000;stroke-width:0.80000001;stroke-linecap:butt;stroke-linejoin:miter;stroke-miterlimit:4;stroke-dasharray:none;stroke-opacity:1"
           id="path68"
           inkscape:connector-curvature="0" /></g><g
         id="g70"
         transform="matrix(1,0,0,-1,0,532.81409)"><path
           d="m 155.133,205.422 2.238,1.816 -2.203,1.762"
           style="fill:none;stroke:#000000;stroke-width:0.80000001;stroke-linecap:butt;stroke-linejoin:miter;stroke-miterlimit:4;stroke-dasharray:none;stroke-opacity:1"
           id="path72"
           inkscape:connector-curvature="0" /></g><text
         transform="matrix(1,0,0,-1,170.45491,523.6969)"
         style="font-style:oblique;font-variant:normal;font-size:12px;font-family:'DejaVu Sans';-inkscape-font-specification:DejaVuSans-Oblique;writing-mode:lr-tb;fill:#000000;fill-opacity:1;fill-rule:nonzero;stroke:none"
         id="text76"><tspan
           x="0 7.6079998 15.204 22.548 30.156 37.535999 41.34"
           y="0"
           sodipodi:role="line"
           id="tspan74">Shape 1</tspan></text>
<g
         id="g78"
         transform="matrix(1,0,0,-1,0,532.81409)"><path
           d="M 493.598,329.129 V 509.441 H 725.227"
           style="fill:none;stroke:#000000;stroke-width:1.60000002;stroke-linecap:butt;stroke-linejoin:miter;stroke-miterlimit:4;stroke-dasharray:none;stroke-opacity:1"
           id="path80"
           inkscape:connector-curvature="0" /></g><path
         d="m 486.5,186.58 7.07,19.23 7.071,-19.23 c -4.176,3.074 -9.887,3.054 -14.141,0 z"
         style="fill:#000000;fill-opacity:1;fill-rule:evenodd;stroke:none"
         id="path82"
         inkscape:connector-curvature="0" /><path
         d="M 708.121,30.474 727.352,23.4 708.121,16.33 c 3.074,4.175 3.055,9.886 0,14.144 z"
         style="fill:#000000;fill-opacity:1;fill-rule:evenodd;stroke:none"
         id="path84"
         inkscape:connector-curvature="0" /><g
         id="g86"
         transform="matrix(1,0,0,-1,0,532.81409)"><path
           d="m 493.637,491.668 c 116.226,16.187 118.773,-0.734 221.988,0.293"
           style="fill:none;stroke:#000000;stroke-width:0.80000001;stroke-linecap:butt;stroke-linejoin:miter;stroke-miterlimit:4;stroke-dasharray:none;stroke-opacity:1"
           id="path88"
           inkscape:connector-curvature="0" /></g><text
         transform="matrix(1,0,0,-1,677.67466,2.496137)"
         style="font-style:oblique;font-variant:normal;font-size:12px;font-family:'DejaVu Sans';-inkscape-font-specification:DejaVuSans-Oblique;writing-mode:lr-tb;fill:#000000;fill-opacity:1;fill-rule:nonzero;stroke:none"
         id="text92"><tspan
           x="0 7.2360001 14.58 19.511999 26.856001 38.580002 45.959999 50.664001 58.043999 62.976002 66.779999"
           y="0"
           sodipodi:role="line"
           id="tspan90">Parameter p</tspan></text>
<text
         transform="matrix(1,0,0,-1,752.1356,0.0961367)"
         style="font-style:oblique;font-variant:normal;font-size:7.80010986px;font-family:'DejaVu Sans';-inkscape-font-specification:DejaVuSans-Oblique;writing-mode:lr-tb;fill:#000000;fill-opacity:1;fill-rule:nonzero;stroke:none"
         id="text96"><tspan
           x="0"
           y="0"
           id="tspan94">i</tspan></text>
<text
         transform="matrix(1,0,0,-1,423.29092,172.6142)"
         style="font-style:oblique;font-variant:normal;font-size:12px;font-family:'DejaVu Sans';-inkscape-font-specification:DejaVuSans-Oblique;writing-mode:lr-tb;fill:#000000;fill-opacity:1;fill-rule:nonzero;stroke:none"
         id="text102"><tspan
           x="0 8.3760004 15.72 19.044001 22.368 29.976 34.908001 42.251999 46.956001 50.279999 57.612"
           y="0"
           sodipodi:role="line"
           id="tspan98">Calibration</tspan><tspan
           x="17.882809 25.262808 30.194807 35.126808 42.458809"
           y="15"
           sodipodi:role="line"
           id="tspan100">error</tspan></text>
<g
         id="g104"
         transform="matrix(1,0,0,-1,0,532.81409)"><path
           d="m 493.586,477.18 h 221.82"
           style="fill:none;stroke:#000000;stroke-width:0.80000001;stroke-linecap:butt;stroke-linejoin:miter;stroke-miterlimit:4;stroke-dasharray:1.6, 3.2;stroke-dashoffset:0;stroke-opacity:1"
           id="path106"
           inkscape:connector-curvature="0" /></g><text
         transform="matrix(1,0,0,-1,416.71314,59.615424)"
         style="font-style:oblique;font-variant:normal;font-size:12px;font-family:'DejaVu Sans';-inkscape-font-specification:DejaVuSans-Oblique;writing-mode:lr-tb;fill:#000000;fill-opacity:1;fill-rule:nonzero;stroke:none"
         id="text114"><tspan
           x="0 8.2080002 14.796 21.384001 28.764 36.372002 41.076 48.419998 56.051998 62.639999"
           y="0"
           sodipodi:role="line"
           id="tspan108">Acceptance</tspan><tspan
           x="6.6445322 11.348532 18.944532 23.876532 31.256533 37.532532 45.128532 52.460533 55.784531"
           y="15"
           sodipodi:role="line"
           id="tspan110">threshold</tspan><tspan
           x="171.62029 179.22829 186.8243 194.16829 201.77629 209.1563 212.9603"
           y="-161.24123"
           sodipodi:role="line"
           id="tspan112">Shape 4</tspan></text>
<g
         id="g116"
         transform="matrix(1,0,0,-1,0,532.81409)"><path
           d="M 77.523,327.723 V 508.035 H 309.152"
           style="fill:none;stroke:#000000;stroke-width:1.60000002;stroke-linecap:butt;stroke-linejoin:miter;stroke-miterlimit:4;stroke-dasharray:none;stroke-opacity:1"
           id="path118"
           inkscape:connector-curvature="0" /></g><path
         d="m 70.426,187.986 7.07,19.23 7.07,-19.23 c -4.175,3.07 -9.886,3.055 -14.14,0 z"
         style="fill:#000000;fill-opacity:1;fill-rule:evenodd;stroke:none"
         id="path120"
         inkscape:connector-curvature="0" /><path
         d="m 292.047,31.877 19.23,-7.071 -19.23,-7.07 c 3.074,4.172 3.055,9.887 0,14.141 z"
         style="fill:#000000;fill-opacity:1;fill-rule:evenodd;stroke:none"
         id="path122"
         inkscape:connector-curvature="0" /><g
         id="g124"
         transform="matrix(1,0,0,-1,0,532.81409)"><path
           d="m 78.586,362.109 c 22.387,163.368 40.941,22.918 70.445,37.582 67.426,33.508 57.879,2.809 77.024,5.317 47.047,6.156 24.773,-32.934 78.082,-46.274"
           style="fill:none;stroke:#000000;stroke-width:0.80000001;stroke-linecap:butt;stroke-linejoin:miter;stroke-miterlimit:4;stroke-dasharray:none;stroke-opacity:1"
           id="path126"
           inkscape:connector-curvature="0" /></g><text
         transform="matrix(1,0,0,-1,261.60021,3.899849)"
         style="font-style:oblique;font-variant:normal;font-size:12px;font-family:'DejaVu Sans';-inkscape-font-specification:DejaVuSans-Oblique;writing-mode:lr-tb;fill:#000000;fill-opacity:1;fill-rule:nonzero;stroke:none"
         id="text130"><tspan
           x="0 7.2360001 14.58 19.511999 26.856001 38.580002 45.959999 50.664001 58.043999 62.976002 66.779999"
           y="0"
           sodipodi:role="line"
           id="tspan128">Parameter p</tspan></text>
<text
         transform="matrix(1,0,0,-1,336.06114,1.499849)"
         style="font-style:oblique;font-variant:normal;font-size:7.80010986px;font-family:'DejaVu Sans';-inkscape-font-specification:DejaVuSans-Oblique;writing-mode:lr-tb;fill:#000000;fill-opacity:1;fill-rule:nonzero;stroke:none"
         id="text134"><tspan
           x="0"
           y="0"
           id="tspan132">i</tspan></text>
<text
         transform="matrix(1,0,0,-1,7.216416,174.01791)"
         style="font-style:oblique;font-variant:normal;font-size:12px;font-family:'DejaVu Sans';-inkscape-font-specification:DejaVuSans-Oblique;writing-mode:lr-tb;fill:#000000;fill-opacity:1;fill-rule:nonzero;stroke:none"
         id="text140"><tspan
           x="0 8.3760004 15.72 19.044001 22.368 29.976 34.908001 42.251999 46.956001 50.279999 57.612"
           y="0"
           sodipodi:role="line"
           id="tspan136">Calibration</tspan><tspan
           x="17.882809 25.262808 30.194807 35.126808 42.458809"
           y="15"
           sodipodi:role="line"
           id="tspan138">error</tspan></text>
<g
         id="g142"
         transform="matrix(1,0,0,-1,0,532.81409)"><path
           d="M 77.512,475.777 H 307.941"
           style="fill:none;stroke:#000000;stroke-width:0.80000001;stroke-linecap:butt;stroke-linejoin:miter;stroke-miterlimit:4;stroke-dasharray:1.6, 3.2;stroke-dashoffset:0;stroke-opacity:1"
           id="path144"
           inkscape:connector-curvature="0" /></g><text
         transform="matrix(1,0,0,-1,0.638682,61.019136)"
         style="font-style:oblique;font-variant:normal;font-size:12px;font-family:'DejaVu Sans';-inkscape-font-specification:DejaVuSans-Oblique;writing-mode:lr-tb;fill:#000000;fill-opacity:1;fill-rule:nonzero;stroke:none"
         id="text152"><tspan
           x="0 8.2080002 14.796 21.384001 28.764 36.372002 41.076 48.419998 56.051998 62.639999"
           y="0"
           sodipodi:role="line"
           id="tspan146">Acceptance</tspan><tspan
           x="6.6445322 11.348532 18.944532 23.876532 31.256533 37.532532 45.128532 52.460533 55.784531"
           y="15"
           sodipodi:role="line"
           id="tspan148">threshold</tspan><tspan
           x="169.29474 176.90274 184.49873 191.84274 199.45074 206.83073 210.63474"
           y="-158.43379"
           sodipodi:role="line"
           id="tspan150">Shape 3</tspan></text>
<g
         id="g154"
         transform="matrix(1,0,0,-1,0,532.81409)"><path
           d="M 493.598,13.363 V 193.676 H 725.227"
           style="fill:none;stroke:#000000;stroke-width:1.60000002;stroke-linecap:butt;stroke-linejoin:miter;stroke-miterlimit:4;stroke-dasharray:none;stroke-opacity:1"
           id="path156"
           inkscape:connector-curvature="0" /></g><path
         d="m 486.5,502.345 7.07,19.231 7.071,-19.231 c -4.176,3.075 -9.887,3.055 -14.141,0 z"
         style="fill:#000000;fill-opacity:1;fill-rule:evenodd;stroke:none"
         id="path158"
         inkscape:connector-curvature="0" /><path
         d="m 708.121,346.236 19.231,-7.07 -19.231,-7.071 c 3.074,4.176 3.055,9.887 0,14.141 z"
         style="fill:#000000;fill-opacity:1;fill-rule:evenodd;stroke:none"
         id="path160"
         inkscape:connector-curvature="0" /><g
         id="g162"
         transform="matrix(1,0,0,-1,0,532.81409)"><path
           d="m 494.66,47.75 c 22.387,163.367 39.078,139.191 61.746,115.285 56.09,-59.156 63.297,8.867 94.422,16.914 22.981,5.938 50.098,-56.761 69.383,-135.574"
           style="fill:none;stroke:#000000;stroke-width:0.80000001;stroke-linecap:butt;stroke-linejoin:miter;stroke-miterlimit:4;stroke-dasharray:none;stroke-opacity:1"
           id="path164"
           inkscape:connector-curvature="0" /></g><text
         transform="matrix(1,0,0,-1,677.67469,318.2603)"
         style="font-style:oblique;font-variant:normal;font-size:12px;font-family:'DejaVu Sans';-inkscape-font-specification:DejaVuSans-Oblique;writing-mode:lr-tb;fill:#000000;fill-opacity:1;fill-rule:nonzero;stroke:none"
         id="text168"><tspan
           x="0 7.2360001 14.58 19.511999 26.856001 38.580002 45.959999 50.664001 58.043999 62.976002 66.779999"
           y="0"
           sodipodi:role="line"
           id="tspan166">Parameter p</tspan></text>
<text
         transform="matrix(1,0,0,-1,752.13562,315.8603)"
         style="font-style:oblique;font-variant:normal;font-size:7.80010986px;font-family:'DejaVu Sans';-inkscape-font-specification:DejaVuSans-Oblique;writing-mode:lr-tb;fill:#000000;fill-opacity:1;fill-rule:nonzero;stroke:none"
         id="text172"><tspan
           x="0"
           y="0"
           id="tspan170">i</tspan></text>
<text
         transform="matrix(1,0,0,-1,423.2909,488.37837)"
         style="font-style:oblique;font-variant:normal;font-size:12px;font-family:'DejaVu Sans';-inkscape-font-specification:DejaVuSans-Oblique;writing-mode:lr-tb;fill:#000000;fill-opacity:1;fill-rule:nonzero;stroke:none"
         id="text178"><tspan
           x="0 8.3760004 15.72 19.044001 22.368 29.976 34.908001 42.251999 46.956001 50.279999 57.612"
           y="0"
           sodipodi:role="line"
           id="tspan174">Calibration</tspan><tspan
           x="17.882809 25.262808 30.194807 35.126808 42.458809"
           y="15"
           sodipodi:role="line"
           id="tspan176">error</tspan></text>
<g
         id="g180"
         transform="matrix(1,0,0,-1,0,532.81409)"><path
           d="m 493.586,161.414 h 230.43"
           style="fill:none;stroke:#000000;stroke-width:0.80000001;stroke-linecap:butt;stroke-linejoin:miter;stroke-miterlimit:4;stroke-dasharray:1.6, 3.2;stroke-dashoffset:0;stroke-opacity:1"
           id="path182"
           inkscape:connector-curvature="0" /></g><g
         id="g184"
         transform="matrix(1,0,0,-1,0,532.81409)"><path
           d="m 517.543,163.016 v 41.207"
           style="fill:none;stroke:#000000;stroke-width:0.80000001;stroke-linecap:butt;stroke-linejoin:miter;stroke-miterlimit:4;stroke-dasharray:1.6, 3.2;stroke-dashoffset:0;stroke-opacity:1"
           id="path186"
           inkscape:connector-curvature="0" /></g><g
         id="g188"
         transform="matrix(1,0,0,-1,0,532.81409)"><path
           d="m 677.543,163.016 v 41.207"
           style="fill:none;stroke:#000000;stroke-width:0.80000001;stroke-linecap:butt;stroke-linejoin:miter;stroke-miterlimit:4;stroke-dasharray:1.6, 3.2;stroke-dashoffset:0;stroke-opacity:1"
           id="path190"
           inkscape:connector-curvature="0" /></g><g
         id="g192"
         transform="matrix(1,0,0,-1,0,532.81409)"><path
           d="m 517.52,202.289 h 41.433"
           style="fill:none;stroke:#000000;stroke-width:0.80000001;stroke-linecap:butt;stroke-linejoin:miter;stroke-miterlimit:4;stroke-dasharray:none;stroke-opacity:1"
           id="path194"
           inkscape:connector-curvature="0" /></g><text
         transform="matrix(1,0,0,-1,558.56433,312.53941)"
         style="font-style:oblique;font-variant:normal;font-size:12px;font-family:'DejaVu Sans';-inkscape-font-specification:DejaVuSans-Oblique;writing-mode:lr-tb;fill:#000000;fill-opacity:1;fill-rule:nonzero;stroke:none"
         id="text204"><tspan
           x="0 8.2080002 14.796 21.384001 28.764 36.372002 41.076 48.419998 56.051998 62.639999"
           y="0"
           sodipodi:role="line"
           id="tspan196">Acceptance</tspan><tspan
           x="14.460936 19.392937 26.736937 34.332935 41.940937 49.320934"
           y="15"
           sodipodi:role="line"
           id="tspan198">ranges</tspan><tspan
           x="-141.85123 -133.64322 -127.05522 -120.46722 -113.08722 -105.47922 -100.77522 -93.431221 -85.799217 -79.21122"
           y="-62.840233"
           sodipodi:role="line"
           id="tspan200">Acceptance</tspan><tspan
           x="-135.2067 -130.50269 -122.90668 -117.97469 -110.59469 -104.31869 -96.722687 -89.390686 -86.066689"
           y="-47.840233"
           sodipodi:role="line"
           id="tspan202">threshold</tspan></text>
<g
         id="g206"
         transform="matrix(1,0,0,-1,0,532.81409)"><path
           d="m 561.758,200.539 -2.238,1.816 2.203,1.762"
           style="fill:none;stroke:#000000;stroke-width:0.80000001;stroke-linecap:butt;stroke-linejoin:miter;stroke-miterlimit:4;stroke-dasharray:none;stroke-opacity:1"
           id="path208"
           inkscape:connector-curvature="0" /></g><g
         id="g210"
         transform="matrix(1,0,0,-1,0,532.81409)"><path
           d="m 515.211,200.539 2.234,1.816 -2.203,1.762"
           style="fill:none;stroke:#000000;stroke-width:0.80000001;stroke-linecap:butt;stroke-linejoin:miter;stroke-miterlimit:4;stroke-dasharray:none;stroke-opacity:1"
           id="path212"
           inkscape:connector-curvature="0" /></g><g
         id="g214"
         transform="matrix(1,0,0,-1,0,532.81409)"><path
           d="m 559.145,163.016 v 41.207"
           style="fill:none;stroke:#000000;stroke-width:0.80000001;stroke-linecap:butt;stroke-linejoin:miter;stroke-miterlimit:4;stroke-dasharray:1.6, 3.2;stroke-dashoffset:0;stroke-opacity:1"
           id="path216"
           inkscape:connector-curvature="0" /></g><g
         id="g218"
         transform="matrix(1,0,0,-1,0,532.81409)"><path
           d="m 626.344,163.016 v 41.207"
           style="fill:none;stroke:#000000;stroke-width:0.80000001;stroke-linecap:butt;stroke-linejoin:miter;stroke-miterlimit:4;stroke-dasharray:1.6, 3.2;stroke-dashoffset:0;stroke-opacity:1"
           id="path220"
           inkscape:connector-curvature="0" /></g><g
         id="g222"
         transform="matrix(1,0,0,-1,0,532.81409)"><path
           d="m 626.32,202.289 h 50.864"
           style="fill:none;stroke:#000000;stroke-width:0.80000001;stroke-linecap:butt;stroke-linejoin:miter;stroke-miterlimit:4;stroke-dasharray:none;stroke-opacity:1"
           id="path224"
           inkscape:connector-curvature="0" /></g><g
         id="g226"
         transform="matrix(1,0,0,-1,0,532.81409)"><path
           d="m 680.32,200.539 -2.234,1.816 2.203,1.762"
           style="fill:none;stroke:#000000;stroke-width:0.80000001;stroke-linecap:butt;stroke-linejoin:miter;stroke-miterlimit:4;stroke-dasharray:none;stroke-opacity:1"
           id="path228"
           inkscape:connector-curvature="0" /></g><g
         id="g230"
         transform="matrix(1,0,0,-1,0,532.81409)"><path
           d="m 624.008,200.539 2.238,1.816 -2.203,1.762"
           style="fill:none;stroke:#000000;stroke-width:0.80000001;stroke-linecap:butt;stroke-linejoin:miter;stroke-miterlimit:4;stroke-dasharray:none;stroke-opacity:1"
           id="path232"
           inkscape:connector-curvature="0" /></g><text
         transform="matrix(1,0,0,-1,588.38909,523.45293)"
         style="font-style:oblique;font-variant:normal;font-size:12px;font-family:'DejaVu Sans';-inkscape-font-specification:DejaVuSans-Oblique;writing-mode:lr-tb;fill:#000000;fill-opacity:1;fill-rule:nonzero;stroke:none"
         id="text236"><tspan
           x="0 7.6079998 15.204 22.548 30.156 37.535999 41.34"
           y="0"
           sodipodi:role="line"
           id="tspan234">Shape 2</tspan></text>
</g></g></svg>